<?xml version="1.0" encoding="utf-8"?>
<svg viewBox="0 0 100 100" xmlns="http://www.w3.org/2000/svg">
  <path d="M 59.242 3 C 61.424 5.439 64.599 6.976 68.131 6.976 C 71.662 6.976 74.832 5.439 77.015 3 L 88 3 L 88 22.868 L 77.015 22.868 C 74.832 20.43 71.662 18.897 68.131 18.897 C 64.599 18.897 61.424 20.43 59.242 22.868 L 41.25 22.868 C 39.081 20.448 35.941 18.918 32.441 18.897 C 32.384 18.897 32.322 18.897 32.264 18.897 C 22.034 18.897 12.41 21.472 4 26.009 C 10.859 12.364 24.99 3 41.304 3 L 59.242 3 Z" style="fill: none; stroke-width: 6px; stroke-miterlimit: 2; stroke: rgb(30, 165, 30);"/>
  <path d="M 44 35 L 56 35 L 56 97 L 44 97 L 44 35 Z" style="fill: none; stroke-width: 6px; stroke: rgb(30, 165, 30);"/>
</svg>