<?xml version="1.0" encoding="utf-8"?>
<svg viewBox="0 0 32 32" width="32px" height="32px" xmlns="http://www.w3.org/2000/svg" fill="black">
  <path d="M 15.999 0 C 7.163 0 0 7.163 0 16 C 0 23.07 4.584 29.066 10.942 31.183 C 11.743 31.329 12.034 30.835 12.034 30.411 C 12.034 30.032 12.021 29.025 12.013 27.69 C 7.562 28.656 6.623 25.545 6.623 25.545 C 5.895 23.696 4.846 23.204 4.846 23.204 C 3.394 22.212 4.956 22.232 4.956 22.232 C 6.562 22.345 7.407 23.881 7.407 23.881 C 8.834 26.326 11.152 25.619 12.064 25.21 C 12.209 24.177 12.622 23.471 13.079 23.072 C 9.527 22.668 5.791 21.295 5.791 15.164 C 5.791 13.417 6.415 11.989 7.438 10.87 C 7.273 10.466 6.724 8.839 7.595 6.636 C 7.595 6.636 8.938 6.206 11.995 8.276 C 13.271 7.921 14.64 7.744 16 7.738 C 17.359 7.744 18.728 7.921 20.006 8.276 C 23.061 6.206 24.401 6.636 24.401 6.636 C 25.275 8.839 24.726 10.466 24.561 10.87 C 25.586 11.989 26.206 13.417 26.206 15.164 C 26.206 21.31 22.465 22.663 18.9 23.059 C 19.475 23.553 19.986 24.529 19.986 26.022 C 19.986 28.16 19.967 29.886 19.967 30.411 C 19.967 30.839 20.255 31.337 21.067 31.181 C 27.42 29.06 32 23.068 32 16 C 32 7.163 24.836 0 15.999 0"/>
</svg>